<?xml version="1.0" encoding="utf-8"?>
<!-- Generator: Adobe Illustrator 16.0.4, SVG Export Plug-In . SVG Version: 6.00 Build 0)  -->
<!DOCTYPE svg PUBLIC "-//W3C//DTD SVG 1.1//EN" "http://www.w3.org/Graphics/SVG/1.1/DTD/svg11.dtd">
<svg version="1.1" id="Layer_1" xmlns="http://www.w3.org/2000/svg" xmlns:xlink="http://www.w3.org/1999/xlink" x="0px" y="0px"
	 width="72px" height="72px" viewBox="0 0 72 72" enable-background="new 0 0 72 72" xml:space="preserve">
<g>
	<g>
		<g>
			<g>
				<g>
					<defs>
						<rect id="SVGID_1_" x="5.032" y="3.6" width="61.936" height="64.8"/>
					</defs>
					<clipPath id="SVGID_2_">
						<use xlink:href="#SVGID_1_"  overflow="visible"/>
					</clipPath>
					<path clip-path="url(#SVGID_2_)" fill="#D2D5D5" d="M65.536,40.264l-6.683,6.682h-5.229l-7.775,7.773
						c-4.562,4.564-11.965,4.564-16.529,0c-2.282-2.281-3.423-5.273-3.423-8.264v-0.744v-6.363c0-2.459-1.995-4.453-4.455-4.453
						h-8.698V28.95c0-13.21,10.71-23.919,23.92-23.919h4.952c13.209,0,23.919,10.709,23.919,23.919V40.264L65.536,40.264z"/>
				</g>
			</g>
		</g>
		<g>
			<g>
				<g>
					<defs>
						<rect id="SVGID_3_" x="5.032" y="3.6" width="61.936" height="64.8"/>
					</defs>
					<clipPath id="SVGID_4_">
						<use xlink:href="#SVGID_3_"  overflow="visible"/>
					</clipPath>
					<path clip-path="url(#SVGID_4_)" fill="none" stroke="#58595B" stroke-width="2.8631" stroke-miterlimit="10" d="
						M65.536,40.264l-6.683,6.682h-5.229l-7.775,7.773c-4.562,4.564-11.965,4.564-16.529,0c-2.282-2.281-3.423-5.273-3.423-8.264
						v-0.744v-6.363c0-2.459-1.995-4.453-4.455-4.453h-8.698V28.95c0-13.21,10.71-23.919,23.92-23.919h4.952
						c13.209,0,23.919,10.709,23.919,23.919V40.264L65.536,40.264z"/>
				</g>
			</g>
		</g>
		<g>
			<g>
				<g>
					<defs>
						<rect id="SVGID_5_" x="5.032" y="3.6" width="61.936" height="64.8"/>
					</defs>
					<clipPath id="SVGID_6_">
						<use xlink:href="#SVGID_5_"  overflow="visible"/>
					</clipPath>
					<path clip-path="url(#SVGID_6_)" fill="#4DC8EE" d="M65.536,40.264l-6.683,6.682h-5.229l-7.775,7.773
						c-4.562,4.564-11.965,4.564-16.529,0c-2.282-2.281-3.423-5.273-3.423-8.264v-0.744v-6.363c0-2.459-1.995-4.453-4.455-4.453
						h-8.698V28.95c0-13.21,10.71-23.919,23.92-23.919h4.952c13.209,0,23.919,10.709,23.919,23.919V40.264L65.536,40.264z"/>
				</g>
			</g>
		</g>
		<g>
			<g>
				<g>
					<defs>
						<rect id="SVGID_7_" x="5.032" y="3.6" width="61.936" height="64.8"/>
					</defs>
					<clipPath id="SVGID_8_">
						<use xlink:href="#SVGID_7_"  overflow="visible"/>
					</clipPath>
					<path clip-path="url(#SVGID_8_)" fill="none" stroke="#58595B" stroke-width="1.2728" stroke-miterlimit="10" d="
						M65.536,40.264l-6.683,6.682h-5.229l-7.775,7.773c-4.562,4.564-11.965,4.564-16.529,0c-2.282-2.281-3.423-5.273-3.423-8.264
						v-0.744v-6.363c0-2.459-1.995-4.453-4.455-4.453h-8.698V28.95c0-13.21,10.71-23.919,23.92-23.919h4.952
						c13.209,0,23.919,10.709,23.919,23.919V40.264L65.536,40.264z"/>
				</g>
			</g>
		</g>
	</g>
	
		<line fill="none" stroke="#58595B" stroke-width="0.6364" stroke-miterlimit="10" x1="10.233" y1="29.188" x2="10.233" y2="34.678"/>
	<g>
		<g>
			<g>
				<g>
					<defs>
						<rect id="SVGID_9_" x="5.032" y="3.6" width="61.936" height="64.8"/>
					</defs>
					<clipPath id="SVGID_10_">
						<use xlink:href="#SVGID_9_"  overflow="visible"/>
					</clipPath>
					<path clip-path="url(#SVGID_10_)" fill="none" stroke="#58595B" stroke-width="1.2728" stroke-miterlimit="10" d="
						M65.536,40.264l-6.683,6.682h-5.229l-7.775,7.773c-4.562,4.564-11.965,4.564-16.529,0c-2.282-2.281-3.423-5.273-3.423-8.264
						v-0.744v-6.363c0-2.459-1.995-4.453-4.455-4.453h-8.698V28.95c0-13.21,10.71-23.919,23.92-23.919h4.952
						c13.209,0,23.919,10.709,23.919,23.919V40.264L65.536,40.264z"/>
				</g>
			</g>
		</g>
		<g>
			<g>
				<g>
					<defs>
						<rect id="SVGID_11_" x="5.032" y="3.6" width="61.936" height="64.8"/>
					</defs>
					<clipPath id="SVGID_12_">
						<use xlink:href="#SVGID_11_"  overflow="visible"/>
					</clipPath>
					<path clip-path="url(#SVGID_12_)" fill="#FFFFFF" d="M39.919,32.652c9.502,0,17.204-5.188,17.204-11.586
						c0-6.399-7.702-11.586-17.204-11.586c-9.501,0-17.203,5.187-17.203,11.586S30.418,32.652,39.919,32.652"/>
				</g>
			</g>
		</g>
		<g>
			<g>
				<g>
					<defs>
						<rect id="SVGID_13_" x="5.032" y="3.6" width="61.936" height="64.8"/>
					</defs>
					<clipPath id="SVGID_14_">
						<use xlink:href="#SVGID_13_"  overflow="visible"/>
					</clipPath>
					
						<path clip-path="url(#SVGID_14_)" fill="none" stroke="#58595B" stroke-width="1.9085" stroke-linecap="round" stroke-linejoin="round" stroke-miterlimit="10" d="
						M25.889,31.496v20.438c0,2.23-0.912,5.641-2.027,7.572l-0.892,1.543c-1.116,1.934-3.793,3.986-5.948,4.564l-6.836,1.832
						l-4.2-15.672l19.902-5.008 M9.957,31.496h15.932l11.453,11.452l-7.476,7.477L6.165,56.945 M25.889,46.766l7.479-7.475"/>
				</g>
			</g>
		</g>
		<g>
			<g>
				<g>
					<defs>
						<rect id="SVGID_15_" x="5.032" y="3.6" width="61.936" height="64.8"/>
					</defs>
					<clipPath id="SVGID_16_">
						<use xlink:href="#SVGID_15_"  overflow="visible"/>
					</clipPath>
					<path clip-path="url(#SVGID_16_)" fill="#58595B" d="M44.538,42.947c0,2.021-1.638,3.66-3.658,3.66s-3.657-1.641-3.657-3.66
						c0-2.021,1.639-3.656,3.657-3.656C42.9,39.291,44.538,40.928,44.538,42.947"/>
				</g>
			</g>
		</g>
		<g>
			<g>
				<g>
					<defs>
						<rect id="SVGID_17_" x="5.032" y="3.6" width="61.936" height="64.8"/>
					</defs>
					<clipPath id="SVGID_18_">
						<use xlink:href="#SVGID_17_"  overflow="visible"/>
					</clipPath>
					
						<circle clip-path="url(#SVGID_18_)" fill="none" stroke="#58595B" stroke-width="1.2728" stroke-miterlimit="10" cx="40.88" cy="42.948" r="3.657"/>
				</g>
			</g>
		</g>
		<g>
			<g>
				<g>
					<defs>
						<rect id="SVGID_19_" x="5.032" y="3.6" width="61.936" height="64.8"/>
					</defs>
					<clipPath id="SVGID_20_">
						<use xlink:href="#SVGID_19_"  overflow="visible"/>
					</clipPath>
					
						<path clip-path="url(#SVGID_20_)" fill="none" stroke="#58595B" stroke-width="0.6364" stroke-linecap="round" stroke-linejoin="round" stroke-miterlimit="10" d="
						M48.227,49.311c0,0.457-0.369,0.826-0.824,0.826s-0.824-0.371-0.824-0.826s0.369-0.824,0.824-0.824
						C47.859,48.486,48.227,48.855,48.227,49.311z M34.328,53.729c0,0.455-0.369,0.824-0.824,0.824
						c-0.456,0-0.826-0.369-0.826-0.824c0-0.457,0.37-0.824,0.826-0.824C33.959,52.904,34.328,53.271,34.328,53.729z"/>
				</g>
			</g>
		</g>
		<g>
			<g>
				<g>
					<defs>
						<rect id="SVGID_21_" x="5.032" y="3.6" width="61.936" height="64.8"/>
					</defs>
					<clipPath id="SVGID_22_">
						<use xlink:href="#SVGID_21_"  overflow="visible"/>
					</clipPath>
					
						<path clip-path="url(#SVGID_22_)" fill="none" stroke="#58595B" stroke-width="0.6364" stroke-linecap="round" stroke-linejoin="round" stroke-miterlimit="10" d="
						M35.527,48.967c-3.229-3.219-3.229-8.434,0-11.652c3.228-3.216,8.461-3.216,11.688,0l4.885,4.869"/>
				</g>
			</g>
		</g>
		<g>
			<g>
				<g>
					<defs>
						<rect id="SVGID_23_" x="5.032" y="3.6" width="61.936" height="64.8"/>
					</defs>
					<clipPath id="SVGID_24_">
						<use xlink:href="#SVGID_23_"  overflow="visible"/>
					</clipPath>
					<path clip-path="url(#SVGID_24_)" fill="none" stroke="#58595B" stroke-width="0.6364" stroke-miterlimit="10" d="
						M51.855,49.352h7.635 M65.536,40.424h-5.388c-3.604,0-6.521,2.92-6.521,6.521"/>
				</g>
			</g>
		</g>
	</g>
	<polygon fill="#010101" points="29.475,29.076 37.568,29.076 37.568,26.818 35.058,26.818 35.058,22.33 44.152,22.33 
		44.152,26.818 41.663,26.818 41.663,29.076 49.734,29.076 49.734,26.818 47.409,26.818 47.409,15.282 49.734,15.282 49.734,13.025 
		41.663,13.025 41.663,15.282 44.152,15.282 44.152,19.771 35.058,19.771 35.058,15.282 37.568,15.282 37.568,13.025 29.475,13.025 
		29.475,15.282 31.824,15.282 31.824,26.818 29.475,26.818 	"/>
</g>
</svg>
